<svg id="Capa_1" enable-background="new 0 0 497 497" height="512" viewBox="0 0 497 497" width="512" xmlns="http://www.w3.org/2000/svg"><g><path d="m405.758 497c0-92.764-68.515-138.372-68.515-138.372h-177.485s-68.515 45.608-68.515 138.372z" fill="#6a647f"/><path d="m223.416 358.628h50.168v138.372h-50.168z" fill="#fbe5c8"/><path d="m274.207 420.026h-51.413c-10.113 0-18.311 8.198-18.311 18.311 0 10.113 8.198 18.311 18.311 18.311h51.413c10.113 0 18.311-8.198 18.311-18.311 0-10.113-8.198-18.311-18.311-18.311z" fill="#fbdab2"/><path d="m143.557 497v-45.021c0-4.142 3.357-7.5 7.5-7.5s7.5 3.358 7.5 7.5v45.021z" fill="#4f4c5f"/><path d="m338.444 497v-45.021c0-4.142 3.357-7.5 7.5-7.5s7.5 3.358 7.5 7.5v45.021z" fill="#4f4c5f"/><circle cx="426.297" cy="222.796" fill="#ffbd86" r="46.123"/><path d="m196.939 358.628h-37.181s-68.515 45.608-68.515 138.373h26.42c.958-54.681 33.537-107.299 79.276-138.373z" fill="#5c586f"/><path d="m426.297 212.336c0 98.194-79.602 167.337-177.797 167.337s-177.797-69.142-177.797-167.337 79.603-177.796 177.797-177.796 177.797 79.602 177.797 177.796z" fill="#fed2a4"/><path d="m183.897 368.995c-39.537-41.681-60.76-102.91-60.76-171.173 0-57.055 21.016-109.198 55.725-149.121-53.058 22.608-92.873 70.267-104.603 128.122-1.175-.09-2.358-.15-3.555-.15-25.473 0-46.123 20.65-46.123 46.123s20.65 46.123 46.123 46.123c3.171 0 6.267-.321 9.258-.93 16.797 47.98 55.123 84.069 103.935 101.006z" fill="#ffbd86"/><path d="m485.567 142.149c-62.993-76.774-156.109-118.623-204.77-136.427-20.855-7.63-43.739-7.63-64.593 0-48.662 17.804-141.777 59.653-204.771 136.427-14.732 17.955-1.78 44.983 21.445 44.983h431.242c23.227 0 36.179-27.028 21.447-44.983z" fill="#edb798"/><g><g><g><ellipse cx="156.116" cy="258.959" fill="#ff889e" rx="34.088" ry="27.146"/></g><g><ellipse cx="340.884" cy="258.959" fill="#ff889e" rx="34.088" ry="27.146"/></g></g></g><g fill="#423e4f"><path d="m192.208 236.92c-4.143 0-7.5-3.358-7.5-7.5 0-4.811-3.914-8.725-8.726-8.725-4.811 0-8.725 3.914-8.725 8.725 0 4.142-3.357 7.5-7.5 7.5s-7.5-3.358-7.5-7.5c0-13.082 10.643-23.725 23.725-23.725s23.726 10.643 23.726 23.725c0 4.142-3.357 7.5-7.5 7.5z"/><path d="m337.242 236.92c-4.143 0-7.5-3.358-7.5-7.5 0-4.811-3.914-8.725-8.725-8.725-4.812 0-8.726 3.914-8.726 8.725 0 4.142-3.357 7.5-7.5 7.5s-7.5-3.358-7.5-7.5c0-13.082 10.644-23.725 23.726-23.725s23.725 10.643 23.725 23.725c0 4.142-3.357 7.5-7.5 7.5z"/><path d="m248.5 263.724c-8.764 0-17.098-3.795-22.865-10.413-2.722-3.123-2.396-7.86.727-10.582 3.122-2.721 7.859-2.396 10.582.727 2.918 3.348 7.13 5.268 11.557 5.268 4.426 0 8.639-1.92 11.558-5.269 2.721-3.123 7.459-3.447 10.581-.725 3.123 2.722 3.447 7.459.726 10.582-5.769 6.617-14.103 10.412-22.866 10.412z"/></g><path d="m237.081.711c-7.081.866-14.088 2.527-20.878 5.011-48.661 17.804-141.776 59.653-204.77 136.427-14.732 17.955-1.78 44.983 21.445 44.983h90.515c3.694-79.772 48.481-148.81 113.688-186.421z" fill="#e8a882"/></g></svg>