<svg width="1754" height="1337" viewBox="0 0 1754 1337" fill="none" xmlns="http://www.w3.org/2000/svg">
<g clip-path="url(#clip0)">
<path d="M643.295 443.804C640.334 443.8 637.925 441.527 637.92 438.728C637.925 435.925 640.334 433.652 643.295 433.647C646.26 433.652 648.659 435.92 648.669 438.728C648.659 441.527 646.26 443.8 643.295 443.804Z" fill="#F4F0FA"/>
<path d="M1724.32 1337.37H1335.38C1307.11 1307.86 1281.2 1276.76 1255.02 1246.93C1312.27 1237.24 1371.35 1223.88 1429.48 1207.2L1422.49 1213.81C1423.41 1216.22 1424.43 1218.58 1425.55 1220.89L1444.75 1202.74C1453.26 1200.2 1461.74 1197.6 1470.18 1194.92L1431.52 1231.47C1432.86 1233.51 1434.27 1235.5 1435.76 1237.44L1486.19 1189.75C1495.19 1186.79 1504.11 1183.77 1512.99 1180.65L1443.51 1246.34C1445.21 1248.06 1446.96 1249.72 1448.78 1251.33L1529.95 1174.59C1539.57 1171.08 1549.09 1167.49 1558.54 1163.8L1458.2 1258.65C1460.25 1260.06 1462.35 1261.39 1464.51 1262.66L1576.79 1156.51C1587.3 1152.23 1597.7 1147.81 1607.93 1143.3L1475.7 1268.31C1478.15 1269.36 1480.65 1270.33 1483.19 1271.19L1612.63 1148.83C1611.8 1146.66 1610.89 1144.53 1609.9 1142.44C1662.89 1118.95 1711.79 1092.52 1753.75 1063.51V1309.55C1753.75 1324.91 1740.58 1337.37 1724.32 1337.37V1337.37ZM1618.51 1185.7L1522.19 1276.76C1526.18 1276.59 1530.1 1276.2 1533.96 1275.61L1617.3 1196.82C1617.92 1193.18 1618.34 1189.47 1618.51 1185.7ZM1496.56 1274.8C1499.53 1275.39 1502.55 1275.86 1505.61 1276.2L1617.92 1170.03C1617.56 1167.13 1617.06 1164.28 1616.43 1161.47L1496.56 1274.8ZM1610.03 1219.92L1558.39 1268.74C1581.38 1259.13 1599.87 1241.65 1610.03 1219.92ZM398.165 1184.45C366.701 1184.45 332.87 1182.41 296.073 1177.73C2.64977 1140.43 -80.1624 853.26 139.284 733.072C152.1 793.695 193.775 852.562 266.625 894.829C410.298 978.193 493.522 1075.69 616.938 1150.26C553.294 1169 484.64 1184.45 398.165 1184.45V1184.45ZM633.005 478.652C595.53 478.652 551.142 475.698 497.947 469.879C505.912 415.288 507.699 355.152 532.732 291.337C570.413 195.278 650.563 162.159 741.547 162.159C800.243 162.159 863.466 175.955 922.672 195.521C834.958 389.664 838.517 478.648 633.005 478.652V478.652ZM643.295 427.466C636.719 427.47 631.386 432.502 631.382 438.728C631.386 444.945 636.719 449.981 643.295 449.986C649.876 449.981 655.203 444.945 655.208 438.728C655.203 432.506 649.876 427.466 643.295 427.466Z" fill="#F4F0FA"/>
<path d="M1652.14 268.707C1553.94 268.711 1453.39 245.298 1390.26 176.336C1380.02 165.149 1369.51 154.285 1358.77 143.836C1369.07 132.989 1379.13 121.081 1388.91 108.037C1450.76 25.5314 1519.36 1.65064e-06 1585.87 1.65064e-06C1645.68 1.65064e-06 1703.81 20.6674 1753.75 39.1239V260.885C1721.36 265.775 1686.91 268.707 1652.14 268.707ZM1718.88 192.073C1715.29 187.585 1709.66 184.644 1703.25 184.644C1699.04 184.644 1695.16 185.922 1691.96 188.058C1690.02 179.736 1682.19 173.502 1672.8 173.502C1670.04 173.502 1667.43 174.045 1665.05 175.014C1658.12 160.183 1642.44 149.823 1624.19 149.823C1606.54 149.823 1591.33 159.52 1584.06 173.564L1583.42 173.502C1577.34 173.502 1571.98 176.168 1568.37 180.271C1562.37 173.179 1553.14 168.629 1542.78 168.629C1532.91 168.629 1524.08 172.772 1518.07 179.303C1514.49 175.743 1509.47 173.502 1503.87 173.502C1496.04 173.502 1489.34 177.857 1486.18 184.123C1483.08 182.186 1479.38 181.045 1475.38 181.045C1467.38 181.045 1460.53 185.586 1457.46 192.073H1718.88ZM1594.89 62.9042L1598.28 66.11C1598.73 66.5389 1599.33 66.7555 1599.93 66.7555C1600.53 66.7555 1601.13 66.5389 1601.59 66.11C1602.5 65.2433 1602.5 63.846 1601.59 62.9793L1598.2 59.7779L1601.59 56.5766C1602.5 55.7143 1602.5 54.3126 1601.59 53.4504C1601.13 53.017 1600.53 52.8004 1599.93 52.8004C1599.33 52.8004 1598.73 53.017 1598.28 53.4504L1594.89 56.6517L1591.5 53.4504C1591.04 53.017 1590.45 52.8004 1589.85 52.8004C1589.25 52.8004 1588.65 53.017 1588.19 53.4504C1587.28 54.3126 1587.28 55.7143 1588.19 56.5766L1591.58 59.7779L1588.19 62.9793C1587.28 63.846 1587.28 65.2433 1588.19 66.11C1588.65 66.5389 1589.25 66.7555 1589.85 66.7555C1590.45 66.7555 1591.04 66.5389 1591.5 66.11L1594.89 62.9042Z" fill="#F4F0FA"/>
<path d="M1055.84 1265.33C1034.37 1265.33 1013.95 1264.51 994.867 1262.84C820.36 1247.58 707.767 1205.13 616.938 1150.26C634.165 1145.19 651.017 1139.87 667.762 1134.56C746.374 1109.61 822.517 1084.66 922.42 1084.66C950.933 1084.66 981.368 1086.69 1014.37 1091.34C1123.41 1106.68 1190.09 1172.95 1255.02 1246.93C1183.95 1258.96 1115.73 1265.33 1055.84 1265.33V1265.33ZM139.284 733.072C111.861 603.333 216.493 465.621 430.327 465.621C449.728 465.621 470.079 466.757 491.258 469.136C493.499 469.388 495.739 469.636 497.947 469.879C483.906 566.115 450.668 645.083 237.05 696.376C199.514 705.387 166.998 717.892 139.284 733.072V733.072ZM342.238 579.132L349.011 585.535C349.923 586.402 351.121 586.831 352.318 586.831C353.516 586.831 354.713 586.402 355.625 585.535C357.454 583.811 357.454 581.012 355.625 579.283L348.852 572.876L355.625 566.473C357.454 564.744 357.454 561.945 355.625 560.216C354.713 559.354 353.516 558.925 352.318 558.925C351.121 558.925 349.923 559.354 349.011 560.22L342.238 566.623L335.466 560.22C334.549 559.354 333.352 558.925 332.154 558.925C330.961 558.925 329.764 559.354 328.847 560.216C327.023 561.945 327.023 564.744 328.847 566.473L335.625 572.876L328.847 579.283C327.023 581.012 327.023 583.811 328.847 585.535C329.764 586.402 330.961 586.831 332.154 586.831C333.352 586.831 334.549 586.402 335.466 585.535L342.238 579.132ZM1126.16 244.347C1066.81 244.347 1012.79 229.631 973.837 214.159C957.27 207.58 940.151 201.301 922.672 195.521C925.956 188.252 929.375 180.819 932.934 173.253C984.479 63.5979 1051.79 20.8834 1123.26 20.8834C1201.89 20.8834 1285.57 72.6138 1358.77 143.835C1286.04 220.46 1201.77 244.342 1126.16 244.347V244.347ZM1124.94 92.9275C1118.36 92.9319 1113.03 97.9682 1113.03 104.19C1113.03 110.411 1118.36 115.448 1124.94 115.448C1131.52 115.448 1136.85 110.411 1136.85 104.19C1136.85 97.9682 1131.52 92.9319 1124.94 92.9275ZM1124.94 109.266C1121.97 109.261 1119.57 106.993 1119.57 104.19C1119.57 101.386 1121.97 99.1135 1124.94 99.1091C1127.91 99.1135 1130.31 101.386 1130.31 104.19C1130.31 106.993 1127.91 109.261 1124.94 109.266Z" fill="#F6F3FB"/>
<path d="M357.051 810.697C352.28 810.697 347.996 808.879 344.871 805.93C341.747 802.972 339.825 798.922 339.825 794.416C339.825 789.906 341.747 785.855 344.871 782.897C347.996 779.948 352.28 778.13 357.051 778.13C361.817 778.13 366.102 779.948 369.231 782.897C372.351 785.855 374.273 789.906 374.278 794.416C374.273 798.922 372.351 802.972 369.231 805.93C366.102 808.879 361.817 810.697 357.051 810.697ZM1485.21 566.155C1483.84 566.155 1482.51 566.005 1481.24 565.722L1501.97 546.124C1502.27 547.327 1502.43 548.579 1502.43 549.87C1502.42 554.38 1500.51 558.43 1497.38 561.388C1494.26 564.338 1489.97 566.155 1485.21 566.155ZM1474.2 562.405C1473.8 562.083 1473.4 561.742 1473.03 561.384C1470.39 558.886 1468.61 555.605 1468.11 551.93L1487.39 533.717C1491.27 534.177 1494.74 535.862 1497.38 538.355C1497.76 538.714 1498.12 539.085 1498.46 539.474L1474.2 562.405ZM1691.73 340.446C1688.77 340.441 1686.37 338.168 1686.36 335.365C1686.37 332.562 1688.77 330.293 1691.73 330.284C1694.7 330.293 1697.1 332.562 1697.11 335.365C1697.1 338.168 1694.7 340.441 1691.73 340.446Z" fill="#EEE9F7"/>
<path d="M1255.02 1246.93C1190.09 1172.95 1123.41 1106.68 1014.37 1091.34C981.368 1086.69 950.932 1084.67 922.419 1084.67C822.516 1084.67 746.374 1109.61 667.762 1134.56C651.017 1139.87 634.165 1145.19 616.938 1150.26C493.522 1075.69 410.298 978.193 266.625 894.83C193.775 852.562 152.1 793.695 139.284 733.072C166.997 717.892 199.514 705.388 237.05 696.376C450.668 645.083 483.905 566.115 497.947 469.88C551.142 475.699 595.53 478.652 633.005 478.652C838.517 478.648 834.958 389.664 922.672 195.522C940.151 201.301 957.27 207.58 973.837 214.16C1012.79 229.631 1066.81 244.347 1126.16 244.347C1201.77 244.343 1286.04 220.461 1358.77 143.836C1369.51 154.284 1380.02 165.149 1390.26 176.336C1453.39 245.298 1553.94 268.711 1652.14 268.707C1686.91 268.707 1721.36 265.775 1753.75 260.884V1063.51C1711.79 1092.52 1662.89 1118.95 1609.9 1142.44C1609.79 1142.21 1609.68 1141.98 1609.57 1141.75L1607.93 1143.3C1597.7 1147.81 1587.3 1152.23 1576.79 1156.51L1603.59 1131.17C1602.26 1129.13 1600.85 1127.15 1599.36 1125.21L1558.54 1163.8C1549.09 1167.49 1539.57 1171.08 1529.95 1174.59L1591.61 1116.3C1589.92 1114.58 1588.16 1112.92 1586.34 1111.32L1512.99 1180.65C1504.11 1183.77 1495.19 1186.79 1486.19 1189.75L1576.92 1103.99C1574.87 1102.58 1572.77 1101.25 1570.61 1099.99L1470.18 1194.92C1461.74 1197.6 1453.26 1200.2 1444.75 1202.74L1559.42 1094.34C1556.97 1093.28 1554.48 1092.31 1551.93 1091.45L1429.48 1207.2C1371.35 1223.88 1312.27 1237.24 1255.02 1246.93V1246.93ZM1417.2 1192.61C1417.56 1195.51 1418.05 1198.37 1418.68 1201.17L1538.56 1087.84C1535.59 1087.25 1532.57 1086.78 1529.51 1086.44L1417.2 1192.61V1192.61ZM1417.82 1165.82C1417.19 1169.47 1416.78 1173.18 1416.6 1176.94L1512.93 1085.88C1508.95 1086.05 1505.02 1086.43 1501.17 1087.03L1417.82 1165.82ZM1476.73 1093.89C1453.74 1103.51 1435.25 1120.99 1425.08 1142.72L1476.73 1093.89ZM1691.73 929.903L1696.47 934.378C1697.11 934.979 1697.94 935.284 1698.78 935.284C1699.62 935.284 1700.46 934.979 1701.09 934.378C1702.37 933.171 1702.37 931.212 1701.09 930.005L1696.36 925.53L1701.09 921.055C1702.37 919.848 1702.37 917.894 1701.09 916.686C1700.46 916.081 1699.62 915.78 1698.78 915.78C1697.94 915.78 1697.11 916.081 1696.47 916.686L1691.73 921.161L1686.99 916.686C1686.36 916.081 1685.52 915.78 1684.68 915.78C1683.85 915.78 1683.01 916.081 1682.37 916.686C1681.1 917.894 1681.1 919.848 1682.37 921.055L1687.11 925.53L1682.37 930.005C1681.1 931.212 1681.1 933.171 1682.37 934.378C1683.01 934.979 1683.85 935.284 1684.68 935.284C1685.52 935.284 1686.36 934.979 1686.99 934.378L1691.73 929.903ZM482.236 636.311C446.922 636.311 421.903 658.561 438.348 689.673C454.101 719.471 497.736 702.54 519.86 719.621C544.416 738.582 536.783 764.697 505 789.193C495.131 796.803 479.962 808.154 483.873 821.114C486.408 829.516 502.269 842.865 512.479 843.214L530.347 843.396C537.868 825.766 555.955 820.433 564.814 804.519C580.665 776.039 554.005 768.694 550.838 749.769C546.624 724.569 565.333 726.838 574.992 711.494C586.353 693.449 567.129 672.1 578.916 654.962C587.803 642.05 598.383 637.354 609.679 637.354C635.629 637.354 665.358 662.147 687.018 669.005C696.443 671.99 708.184 674.117 719.451 674.117C730.953 674.117 741.968 671.902 749.536 666.118C769.326 651 789.05 615.971 768.095 595.745C738.563 567.251 749.395 552.651 781.323 545.439C795.458 542.246 801.931 532.063 786.243 520.434C796.613 534.597 787.427 536.989 772.572 536.989C768.783 536.989 764.63 536.834 760.331 536.679C756.037 536.525 751.598 536.37 747.258 536.37C733.825 536.37 721.275 537.855 716.42 545.439C706.589 560.787 718.712 569.851 722.127 581.649C728.123 602.334 719.704 621.047 699.086 621.047C689.615 621.047 677.575 617.098 663.169 607.587C636.854 590.2 639.071 559.239 611.161 551.355C607.733 550.387 604.225 549.927 600.703 549.927C577.452 549.927 553.485 569.975 545.155 595.714C536.525 622.356 526.436 637.204 499.598 637.208C496.89 637.208 494.013 637.054 490.949 636.748C487.989 636.452 485.079 636.311 482.236 636.311V636.311ZM357.051 771.949C343.922 771.949 333.286 782.004 333.286 794.416C333.286 806.823 343.922 816.878 357.051 816.878C370.176 816.878 380.812 806.823 380.812 794.416C380.812 782.004 370.176 771.949 357.051 771.949ZM1051.04 672.795L954.712 763.857C958.692 763.689 962.626 763.3 966.475 762.707L1049.82 683.915C1050.45 680.276 1050.85 676.562 1051.04 672.795ZM929.075 761.889C932.05 762.486 935.067 762.955 938.135 763.295L1050.44 657.124C1050.08 654.228 1049.58 651.376 1048.96 648.563L929.075 761.889V761.889ZM908.224 755.407C910.67 756.459 913.167 757.423 915.712 758.294L1045.15 635.93C1044.23 633.525 1043.21 631.159 1042.09 628.851L908.224 755.407ZM1042.55 707.019L990.909 755.84C1013.9 746.227 1032.39 728.752 1042.55 707.019ZM890.721 745.75C892.77 747.156 894.87 748.491 897.031 749.751L1036.12 618.265C1034.78 616.227 1033.37 614.237 1031.88 612.3L890.721 745.75V745.75ZM876.03 733.439C877.723 735.159 879.481 736.822 881.301 738.423L1024.13 603.399C1022.44 601.679 1020.68 600.017 1018.86 598.416L876.03 733.439ZM864.042 718.569C865.375 720.612 866.787 722.597 868.274 724.534L1009.44 591.085C1007.39 589.679 1005.29 588.343 1003.13 587.083L864.042 718.569V718.569ZM855.01 700.908C855.926 703.314 856.951 705.675 858.064 707.988L991.934 581.432C989.487 580.38 986.99 579.411 984.445 578.545L855.01 700.908V700.908ZM849.715 679.71C850.075 682.611 850.571 685.463 851.202 688.275L971.082 574.945C968.108 574.348 965.091 573.88 962.027 573.539L849.715 679.71V679.71ZM850.337 652.923C849.71 656.562 849.299 660.272 849.121 664.04L945.446 572.978C941.461 573.146 937.536 573.535 933.687 574.127L850.337 652.923V652.923ZM1522.12 648.108C1522.38 648.108 1522.64 648.112 1522.9 648.112C1526.28 648.112 1529.64 648.011 1532.97 647.821L1684.37 504.692C1684.58 501.539 1684.68 498.365 1684.68 495.163C1684.68 494.92 1684.68 494.677 1684.68 494.434L1522.12 648.108ZM1496.54 646.092C1499.61 646.569 1502.71 646.963 1505.84 647.272L1683.79 479.041C1683.46 476.088 1683.05 473.156 1682.55 470.251L1496.54 646.092ZM1681.97 523.197L1552.55 645.548C1557.19 644.734 1561.76 643.735 1566.26 642.554L1678.8 536.158C1680.05 531.908 1681.11 527.588 1681.97 523.197V523.197ZM1474.16 641.051C1476.86 641.856 1479.59 642.598 1482.36 643.271L1679.56 456.84C1678.85 454.231 1678.07 451.644 1677.21 449.093L1474.16 641.051ZM1454.23 633.693C1456.64 634.763 1459.08 635.776 1461.56 636.735L1672.65 437.176C1671.63 434.841 1670.56 432.529 1669.43 430.252L1454.23 633.693V633.693ZM1668.28 562.343L1593.95 632.605C1603.91 627.998 1613.3 622.44 1621.98 616.077L1650.8 588.838C1657.53 580.632 1663.4 571.753 1668.28 562.343V562.343ZM909.248 580.999C886.254 590.607 867.769 608.082 857.601 629.819L909.248 580.999ZM1436.34 624.403C1438.5 625.703 1440.69 626.95 1442.92 628.148L1663.57 419.56C1662.29 417.455 1660.97 415.381 1659.6 413.338L1507.8 556.851C1508.55 554.654 1508.97 552.306 1508.97 549.869C1508.97 546.81 1508.32 543.891 1507.15 541.234L1652.6 403.725C1651.1 401.833 1649.55 399.962 1647.97 398.136L1503.1 535.087C1500.37 532.134 1496.83 529.865 1492.82 528.583L1639.9 389.531C1638.18 387.834 1636.42 386.171 1634.63 384.548L1483.45 527.464C1471.72 528.273 1462.36 537.126 1461.51 548.211L1405.89 600.791C1407.6 602.493 1409.36 604.151 1411.16 605.778L1462.68 557.064C1464.04 560.862 1466.44 564.205 1469.57 566.787L1420.26 613.401C1422.19 614.9 1424.17 616.364 1426.17 617.779L1476.07 570.616C1478.88 571.722 1481.96 572.336 1485.21 572.336C1487.78 572.336 1490.26 571.947 1492.58 571.231L1436.34 624.403V624.403ZM1393.18 586.597C1394.68 588.494 1396.23 590.355 1397.82 592.186L1625.52 376.921C1623.59 375.417 1621.62 373.962 1619.61 372.543L1393.18 586.597V586.597ZM1382.22 570.762C1383.49 572.863 1384.81 574.945 1386.18 576.984L1609.44 365.919C1607.28 364.624 1605.09 363.377 1602.86 362.174L1382.22 570.762V570.762ZM1373.14 553.15C1374.15 555.485 1375.23 557.798 1376.35 560.075L1591.55 356.634C1589.15 355.563 1586.7 354.546 1584.23 353.591L1373.14 553.15V553.15ZM1366.22 533.482C1366.94 536.091 1367.72 538.674 1368.57 541.229L1571.62 349.276C1568.92 348.466 1566.19 347.728 1563.42 347.056L1366.22 533.482ZM1362 511.281C1362.32 514.234 1362.74 517.166 1363.24 520.067L1549.24 344.235C1546.16 343.757 1543.06 343.364 1539.94 343.054L1362 511.281V511.281ZM1361.42 485.625C1361.21 488.778 1361.11 491.962 1361.11 495.163C1361.11 495.406 1361.11 495.645 1361.11 495.884L1523.66 342.219C1523.4 342.219 1523.15 342.214 1522.9 342.214C1519.5 342.214 1516.14 342.316 1512.81 342.51L1361.42 485.625ZM895.473 462.942L900.207 467.421C900.847 468.022 901.685 468.323 902.522 468.323C903.359 468.323 904.196 468.022 904.833 467.421C906.109 466.21 906.109 464.255 904.833 463.048L900.094 458.569L904.833 454.094C906.109 452.887 906.109 450.928 904.833 449.721C904.196 449.119 903.359 448.819 902.522 448.819C901.685 448.819 900.847 449.119 900.207 449.721L895.473 454.2L890.735 449.721C890.099 449.119 889.262 448.819 888.424 448.819C887.587 448.819 886.75 449.119 886.114 449.721C884.837 450.928 884.837 452.887 886.114 454.094L890.847 458.569L886.114 463.048C884.837 464.255 884.837 466.21 886.114 467.421C886.75 468.022 887.587 468.323 888.424 468.323C889.262 468.323 890.099 468.022 890.735 467.421L895.473 462.942ZM1366.99 454.16C1365.74 458.409 1364.68 462.73 1363.82 467.12L1493.23 344.783C1488.59 345.597 1484.01 346.596 1479.52 347.777L1366.99 454.16V454.16ZM1395 401.47C1388.26 409.682 1382.39 418.556 1377.51 427.979L1451.82 357.726C1441.86 362.338 1432.47 367.891 1423.79 374.263L1395 401.47V401.47ZM1691.73 324.103C1685.15 324.107 1679.82 329.143 1679.82 335.365C1679.82 341.586 1685.15 346.623 1691.73 346.627C1698.31 346.623 1703.65 341.586 1703.65 335.365C1703.65 329.143 1698.31 324.107 1691.73 324.103Z" fill="#EEE9F7"/>
<path d="M1377.51 427.979C1382.39 418.556 1388.26 409.682 1395 401.471L1423.79 374.263C1432.47 367.892 1441.86 362.338 1451.82 357.726L1377.51 427.979" fill="#F2EEF9"/>
<path d="M1363.82 467.121C1364.68 462.73 1365.74 458.41 1366.99 454.16L1479.52 347.777C1484.01 346.596 1488.59 345.597 1493.23 344.783L1363.82 467.121" fill="#F2EEF9"/>
<path d="M1361.11 495.884C1361.11 495.645 1361.11 495.407 1361.11 495.163C1361.11 491.962 1361.21 488.778 1361.41 485.626L1512.81 342.51C1516.14 342.316 1519.5 342.214 1522.89 342.214C1523.15 342.214 1523.4 342.219 1523.66 342.219L1361.11 495.884Z" fill="#F2EEF9"/>
<path d="M1363.24 520.067C1362.74 517.166 1362.32 514.234 1362 511.281L1539.94 343.054C1543.06 343.364 1546.17 343.757 1549.24 344.235L1363.24 520.067" fill="#F2EEF9"/>
<path d="M1368.57 541.23C1367.72 538.674 1366.94 536.092 1366.22 533.483L1563.42 347.056C1566.19 347.728 1568.92 348.467 1571.62 349.276L1368.57 541.23Z" fill="#F2EEF9"/>
<path d="M1376.35 560.075C1375.23 557.798 1374.15 555.485 1373.14 553.15L1584.23 353.591C1586.7 354.546 1589.14 355.564 1591.55 356.634L1376.35 560.075" fill="#F2EEF9"/>
<path d="M1386.18 576.984C1384.81 574.945 1383.49 572.863 1382.22 570.763L1602.86 362.174C1605.09 363.377 1607.28 364.624 1609.44 365.919L1386.18 576.984Z" fill="#F2EEF9"/>
<path d="M1397.82 592.186C1396.23 590.355 1394.68 588.494 1393.18 586.597L1619.61 372.543C1621.62 373.963 1623.59 375.417 1625.52 376.921L1397.82 592.186Z" fill="#F2EEF9"/>
<path d="M1411.16 605.778C1409.36 604.151 1407.6 602.493 1405.89 600.791L1461.51 548.211C1461.46 548.76 1461.44 549.312 1461.44 549.869C1461.44 552.385 1461.88 554.804 1462.68 557.064L1411.16 605.778V605.778ZM1468.11 551.93C1468.03 551.258 1467.98 550.568 1467.98 549.869C1467.98 545.364 1469.9 541.313 1473.03 538.355C1476.15 535.401 1480.44 533.588 1485.21 533.584C1485.94 533.584 1486.67 533.628 1487.38 533.717L1468.11 551.93V551.93ZM1492.82 528.583C1490.43 527.818 1487.87 527.407 1485.21 527.402C1484.62 527.402 1484.03 527.424 1483.45 527.464L1634.63 384.548C1636.42 386.171 1638.18 387.833 1639.9 389.531L1492.82 528.583Z" fill="#F2EEF9"/>
<path d="M1426.17 617.779C1424.17 616.364 1422.19 614.901 1420.26 613.402L1469.57 566.787C1471.49 568.375 1473.68 569.675 1476.07 570.617L1426.17 617.779V617.779ZM1481.24 565.722C1478.61 565.138 1476.22 563.984 1474.2 562.405L1498.46 539.474C1500.13 541.38 1501.35 543.64 1501.97 546.125L1481.24 565.722ZM1507.15 541.234C1506.15 538.975 1504.77 536.905 1503.1 535.088L1647.97 398.137C1649.55 399.963 1651.1 401.833 1652.6 403.726L1507.15 541.234Z" fill="#F2EEF9"/>
<path d="M1442.92 628.148C1440.69 626.95 1438.5 625.703 1436.34 624.403L1492.58 571.231C1499.77 569.015 1505.45 563.643 1507.8 556.851L1659.6 413.338C1660.98 415.381 1662.29 417.455 1663.57 419.559L1442.92 628.148" fill="#F2EEF9"/>
<path d="M1461.56 636.735C1459.08 635.776 1456.64 634.763 1454.23 633.693L1669.43 430.252C1670.56 432.529 1671.63 434.842 1672.65 437.176L1461.56 636.735" fill="#F2EEF9"/>
<path d="M1482.36 643.271C1479.59 642.599 1476.86 641.856 1474.16 641.051L1677.21 449.093C1678.07 451.644 1678.85 454.231 1679.56 456.84L1482.36 643.271Z" fill="#F2EEF9"/>
<path d="M1505.84 647.272C1502.71 646.962 1499.61 646.569 1496.54 646.091L1682.55 470.251C1683.05 473.156 1683.46 476.087 1683.79 479.041L1505.84 647.272Z" fill="#F2EEF9"/>
<path d="M1522.89 648.113C1522.64 648.113 1522.38 648.108 1522.12 648.108L1684.68 494.434C1684.68 494.677 1684.68 494.92 1684.68 495.163C1684.68 498.365 1684.58 501.54 1684.37 504.692L1532.97 647.821C1529.64 648.011 1526.28 648.113 1522.89 648.113" fill="#F2EEF9"/>
<path d="M1552.55 645.548L1681.97 523.197C1681.11 527.588 1680.05 531.908 1678.8 536.158L1566.26 642.554C1561.76 643.735 1557.19 644.734 1552.55 645.548" fill="#F2EEF9"/>
<path d="M1593.95 632.605L1668.28 562.343C1663.4 571.753 1657.53 580.632 1650.8 588.838L1621.98 616.076C1613.3 622.439 1603.91 627.997 1593.95 632.605" fill="#F2EEF9"/>
<path d="M857.601 629.819C867.77 608.082 886.254 590.607 909.248 580.999L857.601 629.819Z" fill="#F2EEF9"/>
<path d="M849.121 664.039C849.299 660.272 849.71 656.562 850.337 652.923L933.687 574.127C937.537 573.534 941.461 573.145 945.446 572.977L849.121 664.039Z" fill="#F2EEF9"/>
<path d="M851.203 688.276C850.572 685.463 850.076 682.611 849.716 679.711L962.028 573.539C965.091 573.88 968.108 574.349 971.083 574.946L851.203 688.276" fill="#F2EEF9"/>
<path d="M858.064 707.988C856.951 705.675 855.927 703.314 855.01 700.908L984.445 578.545C986.99 579.411 989.487 580.38 991.934 581.432L858.064 707.988" fill="#F2EEF9"/>
<path d="M868.275 724.533C866.787 722.597 865.375 720.611 864.042 718.568L1003.13 587.083C1005.29 588.343 1007.39 589.678 1009.44 591.084L868.275 724.533" fill="#F2EEF9"/>
<path d="M881.301 738.422C879.482 736.821 877.723 735.159 876.03 733.439L1018.86 598.416C1020.68 600.016 1022.44 601.679 1024.13 603.399L881.301 738.422Z" fill="#F2EEF9"/>
<path d="M897.031 749.751C894.87 748.491 892.77 747.155 890.721 745.749L1031.88 612.3C1033.37 614.237 1034.78 616.226 1036.12 618.265L897.031 749.751" fill="#F2EEF9"/>
<path d="M915.712 758.294C913.167 757.423 910.67 756.459 908.224 755.407L1042.09 628.852C1043.21 631.16 1044.23 633.525 1045.15 635.931L915.712 758.294Z" fill="#F2EEF9"/>
<path d="M938.135 763.295C935.067 762.954 932.05 762.486 929.075 761.889L1048.96 648.563C1049.58 651.375 1050.08 654.227 1050.44 657.123L938.135 763.295" fill="#F2EEF9"/>
<path d="M954.712 763.857L1051.04 672.795C1050.85 676.562 1050.45 680.276 1049.82 683.916L966.476 762.707C962.626 763.3 958.693 763.689 954.712 763.857" fill="#F2EEF9"/>
<path d="M990.909 755.839L1042.55 707.018C1032.39 728.752 1013.9 746.226 990.909 755.839Z" fill="#F2EEF9"/>
<path d="M832.362 104.19H521.141C525.407 98.8482 532.114 95.3461 539.743 95.3461C544.762 95.3461 549.378 96.8673 553.186 99.4098C555.501 89.5051 564.818 82.0808 575.992 82.0808C579.271 82.0808 582.386 82.7309 585.221 83.8849C593.481 66.2288 612.139 53.892 633.874 53.892C654.889 53.892 672.995 65.4373 681.644 82.1516L682.401 82.0808C689.642 82.0808 696.031 85.2556 700.32 90.1417C707.477 81.6961 718.45 76.2751 730.784 76.2751C742.538 76.2751 753.053 81.2098 760.204 88.9833C764.465 84.7516 770.448 82.0808 777.117 82.0808C786.439 82.0808 794.414 87.2676 798.17 94.7271C801.861 92.4234 806.276 91.0615 811.028 91.0615C820.551 91.0615 828.713 96.4649 832.362 104.19" fill="#F1EDF8"/>
<path d="M1718.88 192.073H1457.46C1460.53 185.586 1467.38 181.045 1475.38 181.045C1479.38 181.045 1483.08 182.185 1486.18 184.122C1489.34 177.857 1496.04 173.501 1503.87 173.501C1509.47 173.501 1514.49 175.743 1518.07 179.303C1524.08 172.772 1532.91 168.628 1542.78 168.628C1553.14 168.628 1562.37 173.178 1568.37 180.271C1571.98 176.167 1577.34 173.501 1583.42 173.501L1584.06 173.563C1591.33 159.52 1606.53 149.823 1624.19 149.823C1642.44 149.823 1658.12 160.183 1665.05 175.013C1667.43 174.045 1670.04 173.501 1672.8 173.501C1682.19 173.501 1690.02 179.736 1691.96 188.058C1695.16 185.922 1699.04 184.644 1703.25 184.644C1709.66 184.644 1715.29 187.584 1718.88 192.073Z" fill="#E9E3F5"/>
<path d="M1483.93 832.858C1443.25 826.089 1399.22 713.992 1474.98 676.434C1550.73 638.875 1576.28 618.973 1592.11 531.497C1607.94 444.021 1661.81 485.541 1649.67 536.741C1637.54 587.941 1718.41 581.578 1735.29 605.999C1764.53 648.316 1699.85 655.081 1662.82 679.162C1625.78 703.247 1691.88 719.732 1665.59 760.492C1639.3 801.247 1553.3 844.408 1483.93 832.858" fill="#32B5C6"/>
<path d="M1479.77 831.793L1494.17 807.805L1508.89 783.989C1518.73 768.129 1529.02 752.524 1539.43 736.986C1549.94 721.514 1560.59 706.113 1571.84 691.092C1577.45 683.567 1583.16 676.116 1588.93 668.701C1594.86 661.396 1600.78 654.091 1607.07 647.06C1604.44 650.934 1601.76 654.776 1599.04 658.579L1591.14 670.164C1585.84 677.854 1580.52 685.539 1575.37 693.321L1544.07 739.789C1533.56 755.23 1523.16 770.746 1512.46 786.099C1501.76 801.429 1491.33 816.958 1479.77 831.793" fill="white"/>
<path d="M1521.76 768.257C1537.8 762.632 1554.21 758.551 1570.71 754.836C1587.25 751.286 1603.89 748.106 1620.91 746.488C1604.88 752.126 1588.47 756.207 1571.96 759.908C1555.42 763.455 1538.78 766.629 1521.76 768.257Z" fill="white"/>
<path d="M1562.06 708.66C1560.23 699.228 1560.08 689.854 1560.33 680.493C1560.75 671.137 1561.58 661.794 1564.1 652.508C1565.94 661.935 1566.09 671.309 1565.83 680.67C1565.4 690.027 1564.57 699.37 1562.06 708.66" fill="white"/>
<path d="M1496.63 889.059C1496.63 889.059 1473.81 846.937 1512.78 819.938C1551.75 792.938 1568.99 758.236 1546.76 726.346C1524.53 694.457 1467.45 714.337 1443.32 699.091C1419.19 683.844 1429.56 651.221 1409.78 615.93C1383.26 568.644 1331.94 581.131 1319.94 588.427C1307.93 595.723 1286.65 618.04 1314.5 660.944C1342.36 703.848 1321.83 718.887 1299.66 752.568C1277.49 786.239 1316.34 799.328 1379.41 810.701C1442.47 822.073 1453.37 895.307 1453.37 895.307L1496.63 889.059" fill="#4DD0E1"/>
<path d="M1480.59 931.389C1480.2 917.439 1478.77 903.585 1476.72 889.829C1474.58 876.086 1472.11 862.401 1468.67 848.923C1465.35 835.419 1461.5 822.052 1457.14 808.836L1450.22 789.132L1442.22 769.8C1439.77 763.274 1436.5 757.065 1433.53 750.742C1430.45 744.472 1427.7 738.038 1424.12 731.989L1413.97 713.56C1412.39 710.429 1410.31 707.572 1408.47 704.574L1402.87 695.625C1388.14 671.601 1370.26 649.506 1352.27 627.357C1357.29 632.455 1362.28 637.607 1367.2 642.816C1372.07 648.073 1377.35 653.034 1381.71 658.69C1390.6 669.868 1399.96 680.785 1407.73 692.742C1424.49 715.93 1437.61 741.302 1449.12 767.156C1460.48 793.125 1468.73 820.27 1474.26 847.822C1477.05 861.596 1478.93 875.52 1480.33 889.458C1481.17 903.439 1481.88 917.461 1480.59 931.389" fill="white"/>
<path d="M1453.92 794.416C1445.73 787.129 1436.56 781.31 1427.01 776.317C1417.41 771.396 1407.34 767.447 1396.96 764.396C1391.7 763.088 1386.5 761.509 1381.1 760.682C1378.43 760.191 1375.77 759.484 1373.06 759.174C1370.34 758.856 1367.63 758.484 1364.91 758.078C1362.2 757.591 1359.45 757.459 1356.7 757.242L1348.43 756.517C1342.89 756.185 1337.33 756.154 1331.68 755.659C1337.18 754.602 1342.76 753.696 1348.38 753.063C1354.01 752.864 1359.7 752.214 1365.37 752.599C1376.77 752.78 1388.09 754.77 1399.13 757.666C1410.03 761.005 1420.6 765.502 1430.04 771.657C1439.44 777.755 1448.08 785.223 1453.92 794.416" fill="white"/>
<path d="M1463.57 820.619C1459.99 811.598 1458.85 801.733 1459.47 791.961C1460.1 782.163 1463.05 772.364 1468.17 763.622L1470.13 760.354C1470.83 759.298 1471.7 758.342 1472.47 757.334C1474.15 755.402 1475.51 753.218 1477.45 751.511L1483.2 746.386C1485.11 744.679 1487.44 743.476 1489.57 742.061C1493.72 739.028 1498.72 737.401 1503.34 735.336C1508.14 733.638 1513.19 732.608 1518.1 731.555C1513.71 734.098 1509.13 735.955 1504.94 738.44C1500.9 741.151 1496.55 743.3 1493.02 746.488C1485.39 752.108 1479.28 759.227 1474.68 767.049C1469.95 774.836 1466.95 783.564 1465.22 792.611C1463.6 801.685 1463.03 811.055 1463.57 820.619" fill="white"/>
<path d="M1633.22 867.3C1705.47 884.571 1707.21 825.058 1662.95 791.869C1635.28 771.126 1691.76 760.058 1713.64 739.886C1751.22 705.233 1690.95 661.669 1659.68 692.02C1628.42 722.376 1609.03 731.701 1586.25 734.35C1563.48 736.999 1499.19 737.662 1504.74 776.317C1508.2 800.407 1486.16 820.986 1489.18 845.129C1555.98 823.763 1595.59 858.301 1633.22 867.3" fill="#60E3F4"/>
<path d="M1489.18 845.129C1515.46 823.524 1543.82 804.378 1573 786.474C1587.69 777.661 1602.62 769.171 1617.93 761.327C1633.25 753.51 1649.01 746.399 1665.2 740.346C1650.19 748.712 1635.44 757.268 1620.66 765.789C1605.99 774.495 1591.32 783.166 1576.77 792.028L1533.1 818.656C1518.58 827.605 1503.91 836.378 1489.18 845.129" fill="white"/>
<path d="M1563.38 796.299C1562.71 791.692 1562.72 787.19 1562.97 782.724C1563.17 778.254 1563.72 773.836 1564.46 769.446C1565.22 765.059 1566.18 760.704 1567.49 756.401C1568.75 752.095 1570.26 747.819 1572.44 743.658C1573.12 748.265 1573.12 752.767 1572.87 757.228C1572.66 761.703 1572.11 766.12 1571.36 770.507C1570.59 774.889 1569.63 779.249 1568.33 783.547C1567.07 787.858 1565.57 792.134 1563.38 796.299" fill="white"/>
<path d="M1543.6 808.755C1552.15 807.411 1560.7 806.721 1569.25 806.257C1577.8 805.753 1586.35 805.638 1594.9 805.598C1603.45 805.677 1611.99 805.841 1620.55 806.389C1629.09 806.902 1637.64 807.645 1646.18 809.038C1637.63 810.391 1629.08 811.085 1620.53 811.549C1611.98 812.049 1603.42 812.164 1594.88 812.199C1586.33 812.107 1577.78 811.943 1569.24 811.39C1560.69 810.882 1552.14 810.143 1543.6 808.755" fill="white"/>
<path d="M1566.09 956.332H1460.37L1435.77 856.444H1590.7L1566.09 956.332" fill="#39306C"/>
<path d="M1607.24 871.218H1419.22V831.006H1607.24V871.218" fill="#4B4583"/>
<path d="M530.346 843.395L512.479 843.214C502.268 842.865 486.407 829.515 483.872 821.114C479.962 808.154 495.131 796.803 505 789.193C536.782 764.696 544.416 738.581 519.86 719.621C497.736 702.54 454.101 719.471 438.348 689.672C421.902 658.561 446.921 636.31 482.235 636.31C485.079 636.31 487.988 636.452 490.949 636.748C494.013 637.053 496.889 637.208 499.597 637.208C526.436 637.204 536.525 622.355 545.155 595.714C553.485 569.975 577.452 549.926 600.703 549.926C604.225 549.926 607.733 550.386 611.161 551.355C639.071 559.239 636.854 590.2 663.169 607.586C677.575 617.098 689.614 621.046 699.086 621.046C719.704 621.046 728.123 602.333 722.126 581.648C718.712 569.851 706.588 560.786 716.42 545.438C721.275 537.855 733.824 536.369 747.258 536.369C751.598 536.369 756.037 536.524 760.331 536.679C764.629 536.834 768.783 536.988 772.571 536.988C787.427 536.988 796.613 534.596 786.243 520.433C801.931 532.063 795.458 542.246 781.323 545.438C749.395 552.65 738.563 567.251 768.095 595.745C789.05 615.97 769.325 650.999 749.536 666.117C741.968 671.901 730.953 674.116 719.451 674.116C708.183 674.116 696.443 671.99 687.018 669.005C665.358 662.147 635.628 637.354 609.679 637.354C598.383 637.354 587.803 642.05 578.916 654.961C567.129 672.1 586.353 693.448 574.991 711.494C565.333 726.837 546.623 724.569 550.838 749.769C554.004 768.694 580.665 776.038 564.814 804.519C555.955 820.433 537.867 825.766 530.346 843.395" fill="#FBF9FD"/>
<path d="M594.711 910.973C594.711 913.869 592.218 916.226 589.154 916.226H580.286C580.511 914.431 580.665 912.614 580.665 910.757V864.443H589.154C592.218 864.443 594.711 866.808 594.711 869.7V910.973ZM589.154 855.144H580.665V844.288C580.665 839.663 576.703 835.914 571.811 835.914H471.262C466.37 835.914 462.403 839.663 462.403 844.288V910.757C462.403 935.925 483.985 956.332 510.613 956.332H532.46C553.602 956.332 571.526 943.442 578.027 925.534H589.154C597.658 925.534 604.557 919.012 604.557 910.973V869.7C604.557 861.662 597.658 855.144 589.154 855.144" fill="#5A8A86"/>
<path d="M567.756 859.522C567.756 851.253 565.913 843.334 562.662 835.914H471.262C466.37 835.914 462.403 839.664 462.403 844.289V910.757C462.403 918.804 464.634 926.352 468.503 932.919C469.887 932.963 471.248 933.082 472.651 933.082C525.173 933.082 567.756 900.149 567.756 859.522Z" fill="#5A8A86"/>
<path d="M1644.25 1056.49H370.873C357.252 1056.49 346.209 1046.06 346.209 1033.18C346.209 1020.3 357.252 1009.86 370.873 1009.86H1644.25C1657.87 1009.86 1668.92 1020.3 1668.92 1033.18C1668.92 1046.06 1657.87 1056.49 1644.25 1056.49Z" fill="#39306C"/>
<path d="M1675.46 1022.13H339.675C320.451 1022.13 304.871 1007.4 304.871 989.226C304.871 971.061 320.451 956.332 339.675 956.332H1675.46C1694.67 956.332 1710.25 971.061 1710.25 989.226C1710.25 1007.4 1694.67 1022.13 1675.46 1022.13Z" fill="#221B4C"/>
<path d="M1549.66 330.094C1549.66 377.27 1509.21 415.513 1459.3 415.513C1409.4 415.513 1368.94 377.27 1368.94 330.094C1368.94 282.913 1409.4 244.669 1459.3 244.669C1509.21 244.669 1549.66 282.913 1549.66 330.094Z" fill="#4B4583"/>
<path d="M1529.76 330.093C1529.76 366.878 1498.21 396.698 1459.3 396.698C1420.4 396.698 1388.85 366.878 1388.85 330.093C1388.85 293.304 1420.4 263.484 1459.3 263.484C1498.21 263.484 1529.76 293.304 1529.76 330.093Z" fill="white"/>
<path d="M1461.59 330.094V290.041C1461.59 288.848 1460.56 287.879 1459.3 287.879C1458.04 287.879 1457.01 288.848 1457.01 290.041V330.094C1457.01 331.288 1458.04 332.256 1459.3 332.256C1460.56 332.256 1461.59 331.288 1461.59 330.094Z" fill="#4B4583"/>
<path d="M1457.68 331.623L1483.59 356.107C1484.48 356.951 1485.93 356.951 1486.82 356.107C1487.72 355.262 1487.72 353.891 1486.82 353.047L1460.92 328.563C1460.03 327.719 1458.58 327.719 1457.68 328.563C1456.79 329.408 1456.79 330.779 1457.68 331.623Z" fill="#4B4583"/>
<path d="M1460.9 389.164V381.258C1460.9 380.422 1460.19 379.746 1459.3 379.746C1458.42 379.746 1457.7 380.422 1457.7 381.258V389.164C1457.7 390 1458.42 390.677 1459.3 390.677C1460.19 390.677 1460.9 390 1460.9 389.164Z" fill="#4B4583"/>
<path d="M1491.92 380.502L1487.75 373.643C1487.3 372.918 1486.32 372.671 1485.56 373.086C1484.79 373.506 1484.53 374.431 1484.97 375.151L1489.15 382.014C1489.59 382.735 1490.57 382.987 1491.33 382.567C1492.1 382.151 1492.36 381.227 1491.92 380.502" fill="#4B4583"/>
<path d="M1514.21 358.322L1506.95 354.369C1506.19 353.954 1505.21 354.201 1504.77 354.926C1504.33 355.652 1504.59 356.576 1505.36 356.991L1512.61 360.945C1513.38 361.365 1514.35 361.113 1514.8 360.392C1515.24 359.667 1514.98 358.742 1514.21 358.322" fill="#4B4583"/>
<path d="M1521.82 328.59H1513.41C1512.53 328.59 1511.81 329.267 1511.81 330.103C1511.81 330.938 1512.53 331.615 1513.41 331.615H1521.82C1522.7 331.615 1523.42 330.938 1523.42 330.103C1523.42 329.267 1522.7 328.59 1521.82 328.59Z" fill="#4B4583"/>
<path d="M1512.61 299.261L1505.4 303.214C1504.63 303.635 1504.37 304.563 1504.81 305.284C1505.26 306.009 1506.23 306.252 1507 305.832L1514.21 301.879C1514.98 301.463 1515.24 300.535 1514.79 299.814C1514.35 299.089 1513.37 298.846 1512.61 299.261" fill="#4B4583"/>
<path d="M1489.15 278.191L1484.97 285.01C1484.53 285.731 1484.79 286.659 1485.56 287.075C1486.32 287.495 1487.3 287.247 1487.74 286.527L1491.92 279.708C1492.36 278.983 1492.1 278.059 1491.34 277.639C1490.57 277.223 1489.59 277.466 1489.15 278.191" fill="#4B4583"/>
<path d="M1460.9 278.947V271.002C1460.9 270.166 1460.19 269.489 1459.3 269.489C1458.42 269.489 1457.7 270.166 1457.7 271.002V278.947C1457.7 279.783 1458.42 280.46 1459.3 280.46C1460.19 280.46 1460.9 279.783 1460.9 278.947Z" fill="#4B4583"/>
<path d="M1433.63 285.049L1429.45 278.191C1429.01 277.47 1428.03 277.218 1427.26 277.638C1426.5 278.054 1426.23 278.978 1426.68 279.703L1430.85 286.561C1431.3 287.287 1432.28 287.534 1433.04 287.119C1433.81 286.699 1434.07 285.774 1433.63 285.049" fill="#4B4583"/>
<path d="M1413.2 303.214L1405.99 299.261C1405.23 298.846 1404.24 299.089 1403.81 299.814C1403.36 300.535 1403.62 301.463 1404.39 301.879L1411.6 305.832C1412.36 306.252 1413.34 306.009 1413.79 305.284C1414.23 304.563 1413.97 303.635 1413.2 303.214" fill="#4B4583"/>
<path d="M1405.19 328.59H1396.82C1395.94 328.59 1395.22 329.267 1395.22 330.103C1395.22 330.938 1395.94 331.615 1396.82 331.615H1405.19C1406.07 331.615 1406.79 330.938 1406.79 330.103C1406.79 329.267 1406.07 328.59 1405.19 328.59Z" fill="#4B4583"/>
<path d="M1411.64 354.369L1404.39 358.322C1403.62 358.742 1403.36 359.667 1403.8 360.392C1404.24 361.113 1405.22 361.365 1405.99 360.945L1413.24 356.991C1414.01 356.576 1414.27 355.652 1413.83 354.926C1413.38 354.201 1412.41 353.954 1411.64 354.369" fill="#4B4583"/>
<path d="M1430.85 373.643L1426.68 380.502C1426.23 381.227 1426.5 382.151 1427.26 382.567C1428.03 382.987 1429.01 382.735 1429.45 382.014L1433.63 375.151C1434.07 374.431 1433.81 373.506 1433.04 373.086C1432.28 372.671 1431.3 372.918 1430.85 373.643" fill="#4B4583"/>
<path d="M1463.39 330.094C1463.39 332.23 1461.56 333.959 1459.3 333.959C1457.04 333.959 1455.21 332.23 1455.21 330.094C1455.21 327.958 1457.04 326.225 1459.3 326.225C1461.56 326.225 1463.39 327.958 1463.39 330.094Z" fill="#4B4583"/>
<path d="M804.625 238.197C766.187 201.858 703.604 202.256 665.699 239.39C630.894 273.478 629.374 328.109 662.382 363.762C694.427 398.375 746.696 404.491 785.925 382.169C789.391 380.197 793.601 379.76 797.478 380.852L822.095 387.776C823.971 388.302 825.72 386.653 825.159 384.88L817.829 361.604C816.674 357.925 817.156 353.941 819.247 350.656C841.754 315.281 836.899 268.702 804.625 238.197" fill="#5A8A86"/>
<path d="M680.68 266.694H791.024C793.175 266.694 794.92 265.045 794.92 263.011C794.92 260.977 793.175 259.332 791.024 259.332H680.68C678.529 259.332 676.784 260.977 676.784 263.011C676.784 265.045 678.529 266.694 680.68 266.694Z" fill="white"/>
<path d="M764.564 293.535H791.023C793.175 293.535 794.919 291.886 794.919 289.852C794.919 287.818 793.175 286.168 791.023 286.168H764.564C762.412 286.168 760.667 287.818 760.667 289.852C760.667 291.886 762.412 293.535 764.564 293.535Z" fill="white"/>
<path d="M680.68 293.535H738.272C740.419 293.535 742.164 291.886 742.164 289.852C742.164 287.818 740.419 286.168 738.272 286.168H680.68C678.529 286.168 676.784 287.818 676.784 289.852C676.784 291.886 678.529 293.535 680.68 293.535Z" fill="white"/>
<path d="M731.13 320.374H791.023C793.175 320.374 794.919 318.725 794.919 316.691C794.919 314.661 793.175 313.012 791.023 313.012H731.13C728.978 313.012 727.238 314.661 727.238 316.691C727.238 318.725 728.978 320.374 731.13 320.374Z" fill="white"/>
<path d="M680.68 320.374H709.474C711.626 320.374 713.37 318.725 713.37 316.691C713.37 314.661 711.626 313.012 709.474 313.012H680.68C678.529 313.012 676.784 314.661 676.784 316.691C676.784 318.725 678.529 320.374 680.68 320.374Z" fill="white"/>
<path d="M764.559 347.215H791.023C793.175 347.215 794.919 345.57 794.919 343.536C794.919 341.502 793.175 339.852 791.023 339.852H764.559C762.407 339.852 760.663 341.502 760.663 343.536C760.663 345.57 762.407 347.215 764.559 347.215Z" fill="white"/>
<path d="M680.68 347.215H736.977C739.128 347.215 740.873 345.57 740.873 343.536C740.873 341.502 739.128 339.852 736.977 339.852H680.68C678.529 339.852 676.784 341.502 676.784 343.536C676.784 345.57 678.529 347.215 680.68 347.215Z" fill="white"/>
<path d="M1008.29 281.857C1008.29 281.857 998.444 240.761 1040.28 205.476C1082.11 170.194 1146.76 173.409 1182.2 191.808C1228.14 215.654 1273.23 278.758 1232.01 368.904C1190.8 459.047 1379.67 421.824 1316.3 543.958C1252.93 666.092 1143.43 581.764 1104.05 632.362C1064.68 682.956 928.387 550.299 1044.83 457.565C1161.27 364.832 1017.11 365.221 1008.29 281.857" fill="#221B4C"/>
<path d="M997.631 550.944C949.837 570.201 910.262 684.702 906.572 928.97H1009.58C1009.58 928.97 1072.15 520.92 997.631 550.944Z" fill="#5EA288"/>
<path d="M1125.41 514.535C1181.9 509.264 1273.98 518.138 1307.07 552.686C1314.37 560.304 1314.4 574.582 1310.49 594.33C1296.67 664.123 1233.51 802.233 1267.08 956.332H973.013C973.013 956.332 1000.9 835.914 985.32 797.917C967.499 754.473 952.078 715.212 969.627 678.923C1009.58 596.302 973.795 562.095 999.108 550.152C1033.94 533.712 1077.63 518.992 1125.41 514.535Z" fill="#72B198"/>
<path d="M1246.78 719.015C1234.48 786.483 1151.84 794.813 1110.41 781.636C1110.41 781.636 1170.7 816.144 1214.18 796.754C1214.18 796.754 1225.25 829.71 1208.69 933.347H1262.76L1262.73 932.821C1254.17 878.61 1256.86 826.756 1264.32 779.633C1265.72 767.695 1267.6 756.866 1270.1 748.088L1270.18 747.801C1277.03 714.757 1285.6 684.556 1293.3 658.185C1296.57 640.303 1297.84 624.65 1297.84 605.022C1297.84 605.022 1259.08 651.552 1246.78 719.015" fill="#5EA288"/>
<path d="M1249.86 863.833C1249.86 863.833 1198.49 923.478 1173.66 907.325C1140.76 885.933 1113.69 886.322 1091.95 898.592C1069.41 911.323 1060.78 933.347 1060.78 933.347H1237.09L1288.41 891.367L1249.86 863.833" fill="#F4AE98"/>
<path d="M1309 555.14C1309 555.14 1354.33 667.064 1393.2 758.564C1424.57 832.425 1235.37 933.082 1235.37 933.082L1204.13 893.494L1313.09 779.306L1246.45 646.463C1246.45 646.463 1207.81 574.003 1266.46 548.322C1299.1 534.03 1309 555.14 1309 555.14" fill="#72B198"/>
<path d="M1164.09 405.543C1164.09 405.543 1156.96 490.392 1178.49 512.554C1206.18 541.052 1157.58 602.506 1084.57 649.032C1084.57 649.032 1043.76 606.189 1075.76 536.396C1107.74 466.607 1076.74 427.192 1076.74 427.192L1164.09 405.543Z" fill="#F4AE98"/>
<path d="M1178.49 368.904C1178.49 427.037 1135.17 474.115 1098.56 474.115C1061.96 474.115 1016.22 435.456 1010.07 363.921C1005.09 305.973 1038.11 263.635 1088.06 263.635C1138.01 263.635 1178.49 310.766 1178.49 368.904Z" fill="#FFB99F"/>
<path d="M1025.96 250.02C1020.82 252.828 1009.67 259.651 996.695 267.822C982.551 276.719 967.48 292.133 962.293 308.998C953.397 337.961 975.937 374.652 1020.78 361.697C1065.62 348.741 1087.05 280.738 1123.43 320.048C1168.65 368.904 1185.05 341.675 1185.05 341.675C1185.05 341.675 1175.99 280.849 1130.17 253.474C1105.62 238.807 1068.61 226.757 1025.96 250.02" fill="#221B4C"/>
<path d="M1208.69 347.966C1208.69 366.931 1196.83 382.306 1182.2 382.306C1167.58 382.306 1155.71 366.931 1155.71 347.966C1155.71 329.001 1167.58 313.627 1182.2 313.627C1196.83 313.627 1208.69 329.001 1208.69 347.966Z" fill="#72B198"/>
<path d="M1098.84 233.5C1058.1 226.085 1018.81 240.641 996.695 267.822C1021.1 252.054 1053.08 245.191 1085.86 251.156C1139.98 261.012 1178.32 302.564 1179.59 348.696C1180.59 345.694 1181.44 342.625 1182.08 339.472C1191.93 291.107 1154.66 243.666 1098.84 233.5Z" fill="#72B198"/>
<path d="M1173.99 359.383L1174.02 359.715C1174.07 360.418 1174.18 362.191 1174.18 364.76C1174.19 373.515 1172.89 391.507 1163.98 407.806C1159.53 415.96 1153.22 423.693 1144.22 429.778C1135.22 435.862 1123.52 440.333 1108.11 441.84L1108.61 446.466C1124.76 444.896 1137.37 440.142 1147.09 433.563C1161.68 423.689 1169.69 409.827 1174.02 396.836C1178.37 383.836 1179.1 371.645 1179.1 364.76C1179.1 361.17 1178.9 359.025 1178.89 358.968L1173.99 359.383" fill="#72B198"/>
<path d="M1103.44 451.909H1091.54C1087.69 451.909 1084.57 448.955 1084.57 445.316C1084.57 441.677 1087.69 438.723 1091.54 438.723H1103.44C1107.29 438.723 1110.41 441.677 1110.41 445.316C1110.41 448.955 1107.29 451.909 1103.44 451.909Z" fill="#5EA288"/>
<path d="M1279.74 956.332H851.436C845.449 956.332 840.599 951.746 840.599 946.086V943.323C840.599 937.667 845.449 933.082 851.436 933.082H1279.74C1285.73 933.082 1290.58 937.667 1290.58 943.323V946.086C1290.58 951.746 1285.73 956.332 1279.74 956.332Z" fill="#39306C"/>
<path d="M1081.74 956.332H686.181C675.432 956.332 665.83 949.978 662.153 940.427L569.916 700.855C563.85 685.091 576.198 668.417 593.948 668.417H989.506C1000.25 668.417 1009.86 674.775 1013.53 684.322L1105.77 923.894C1111.84 939.657 1099.49 956.332 1081.74 956.332" fill="#47417F"/>
<path d="M584.818 670C586.305 811.594 786.897 926.122 1034.16 926.122C1058.4 926.122 1082.18 925.008 1105.38 922.886L1013.53 684.322C1009.86 674.775 1000.25 668.417 989.505 668.417H593.948C590.697 668.417 587.629 668.987 584.818 670" fill="#4B4583"/>
<path d="M861.866 807.61C861.866 823.241 848.466 835.913 831.931 835.913C815.397 835.913 801.992 823.241 801.992 807.61C801.992 791.979 815.397 779.306 831.931 779.306C848.466 779.306 861.866 791.979 861.866 807.61Z" fill="#5E5896"/>
<path d="M1290.94 56.9873C1318.82 30.6291 1364.21 30.9166 1391.71 57.8496C1416.96 82.5806 1418.06 122.204 1394.11 148.067C1370.87 173.174 1332.95 177.609 1304.5 161.416C1301.98 159.984 1298.94 159.67 1296.12 160.461L1278.27 165.484C1276.9 165.869 1275.64 164.671 1276.04 163.384L1281.36 146.502C1282.2 143.831 1281.85 140.944 1280.33 138.556C1264.01 112.901 1267.53 79.1139 1290.94 56.9873Z" fill="#5A8A86"/>
<path d="M1313.05 104.19C1313.05 110.142 1307.95 114.966 1301.65 114.966C1295.35 114.966 1290.25 110.142 1290.25 104.19C1290.25 98.2385 1295.35 93.4099 1301.65 93.4099C1307.95 93.4099 1313.05 98.2385 1313.05 104.19Z" fill="white"/>
<path d="M1352.22 104.19C1352.22 110.142 1347.12 114.966 1340.82 114.966C1334.52 114.966 1329.42 110.142 1329.42 104.19C1329.42 98.2385 1334.52 93.4099 1340.82 93.4099C1347.12 93.4099 1352.22 98.2385 1352.22 104.19Z" fill="white"/>
<path d="M1391.4 104.19C1391.4 110.142 1386.29 114.966 1380 114.966C1373.7 114.966 1368.59 110.142 1368.59 104.19C1368.59 98.2385 1373.7 93.4099 1380 93.4099C1386.29 93.4099 1391.4 98.2385 1391.4 104.19Z" fill="white"/>
<path d="M1599.93 66.7556C1599.33 66.7556 1598.73 66.539 1598.28 66.1101L1594.89 62.9043L1598.2 59.7781L1601.59 62.9794C1602.5 63.8461 1602.5 65.2434 1601.59 66.1101C1601.13 66.539 1600.53 66.7556 1599.93 66.7556V66.7556ZM1591.58 59.7781L1588.19 56.5767C1587.28 55.7145 1587.28 54.3128 1588.19 53.4505C1588.65 53.0172 1589.25 52.8006 1589.85 52.8006C1590.44 52.8006 1591.04 53.0172 1591.5 53.4505L1594.89 56.6519L1591.58 59.7781Z" fill="#E8E4F2"/>
<path d="M1589.85 66.7556C1589.25 66.7556 1588.65 66.539 1588.19 66.1101C1587.28 65.2434 1587.28 63.8461 1588.19 62.9794L1591.58 59.7781L1594.89 56.6519L1598.28 53.4505C1598.73 53.0172 1599.33 52.8006 1599.93 52.8006C1600.53 52.8006 1601.13 53.0172 1601.59 53.4505C1602.5 54.3128 1602.5 55.7145 1601.59 56.5767L1598.2 59.7781L1594.89 62.9043L1591.5 66.1101C1591.04 66.539 1590.44 66.7556 1589.85 66.7556" fill="#E8E4F2"/>
<path d="M352.317 586.831C351.12 586.831 349.923 586.402 349.011 585.535L342.238 579.133L348.851 572.876L355.624 579.283C357.453 581.012 357.453 583.811 355.624 585.535C354.712 586.402 353.515 586.831 352.317 586.831V586.831ZM335.624 572.876L328.847 566.473C327.022 564.744 327.022 561.945 328.847 560.216C329.763 559.354 330.961 558.925 332.153 558.925C333.351 558.925 334.548 559.354 335.465 560.22L342.238 566.623L335.624 572.876" fill="#EAE7F3"/>
<path d="M332.153 586.831C330.961 586.831 329.763 586.402 328.847 585.535C327.022 583.811 327.022 581.012 328.847 579.283L335.624 572.876L342.238 566.623L349.011 560.22C349.923 559.354 351.12 558.925 352.317 558.925C353.515 558.925 354.712 559.354 355.624 560.216C357.453 561.945 357.453 564.744 355.624 566.473L348.851 572.876L342.238 579.133L335.465 585.535C334.548 586.402 333.351 586.831 332.153 586.831" fill="#EAE7F3"/>
<path d="M902.522 468.323C901.685 468.323 900.847 468.022 900.206 467.421L895.473 462.941L900.094 458.568L904.832 463.047C906.109 464.255 906.109 466.209 904.832 467.421C904.196 468.022 903.359 468.323 902.522 468.323V468.323ZM890.847 458.568L886.114 454.093C884.837 452.886 884.837 450.927 886.114 449.72C886.75 449.119 887.587 448.818 888.424 448.818C889.262 448.818 890.099 449.119 890.735 449.72L895.473 454.199L890.847 458.568" fill="#E2DDEF"/>
<path d="M888.424 468.323C887.587 468.323 886.75 468.022 886.114 467.421C884.837 466.209 884.837 464.255 886.114 463.047L890.847 458.568L895.473 454.199L900.206 449.72C900.847 449.119 901.685 448.818 902.522 448.818C903.359 448.818 904.196 449.119 904.832 449.72C906.109 450.927 906.109 452.886 904.832 454.093L900.094 458.568L895.473 462.941L890.735 467.421C890.099 468.022 889.262 468.323 888.424 468.323" fill="#E2DDEF"/>
<path d="M1124.94 115.448C1118.36 115.448 1113.03 110.411 1113.03 104.19C1113.03 97.9686 1118.36 92.9322 1124.94 92.9277C1131.52 92.9322 1136.85 97.9686 1136.85 104.19C1136.85 110.411 1131.52 115.448 1124.94 115.448ZM1124.94 99.1094C1121.97 99.1138 1119.57 101.387 1119.57 104.19C1119.57 106.993 1121.97 109.262 1124.94 109.266C1127.91 109.262 1130.31 106.993 1130.31 104.19C1130.31 101.387 1127.91 99.1138 1124.94 99.1094Z" fill="#EAE7F3"/>
<path d="M643.294 449.986C636.718 449.981 631.386 444.945 631.381 438.728C631.386 432.502 636.718 427.47 643.294 427.466C649.875 427.466 655.203 432.506 655.208 438.728C655.203 444.945 649.875 449.981 643.294 449.986ZM643.294 433.647C640.334 433.652 637.925 435.924 637.92 438.728C637.925 441.527 640.334 443.8 643.294 443.804C646.26 443.8 648.659 441.527 648.669 438.728C648.659 435.92 646.26 433.652 643.294 433.647Z" fill="#E8E4F2"/>
<path d="M357.051 816.878C343.922 816.878 333.286 806.823 333.286 794.415C333.286 782.004 343.922 771.948 357.051 771.948C370.176 771.948 380.812 782.004 380.812 794.415C380.812 806.823 370.176 816.878 357.051 816.878ZM357.051 778.13C352.28 778.13 347.996 779.947 344.871 782.897C341.747 785.855 339.825 789.905 339.825 794.415C339.825 798.921 341.747 802.972 344.871 805.93C347.996 808.879 352.28 810.696 357.051 810.696C361.817 810.696 366.102 808.879 369.231 805.93C372.351 802.972 374.273 798.921 374.278 794.415C374.273 789.905 372.351 785.855 369.231 782.897C366.102 779.947 361.817 778.13 357.051 778.13Z" fill="#E2DDEF"/>
<path d="M1485.21 572.336C1481.96 572.336 1478.88 571.722 1476.07 570.616L1481.24 565.721C1482.51 566.004 1483.84 566.155 1485.21 566.155C1489.97 566.155 1494.26 564.337 1497.38 561.388C1500.5 558.43 1502.42 554.379 1502.43 549.869C1502.43 548.578 1502.27 547.327 1501.97 546.124L1507.15 541.234C1508.32 543.891 1508.97 546.809 1508.97 549.869C1508.97 552.306 1508.55 554.654 1507.8 556.851L1492.58 571.231C1490.26 571.947 1487.78 572.336 1485.21 572.336ZM1469.57 566.787C1466.44 564.205 1464.04 560.862 1462.68 557.063L1468.11 551.93C1468.61 555.604 1470.39 558.885 1473.03 561.384C1473.4 561.742 1473.8 562.082 1474.2 562.405L1469.57 566.787ZM1461.51 548.211C1462.36 537.126 1471.72 528.273 1483.45 527.464L1461.51 548.211ZM1498.46 539.474C1498.12 539.085 1497.76 538.713 1497.38 538.355C1494.74 535.861 1491.27 534.176 1487.38 533.717L1492.82 528.583C1496.83 529.865 1500.37 532.133 1503.1 535.087L1498.46 539.474" fill="#E2DDEF"/>
<path d="M1462.68 557.063C1461.88 554.804 1461.44 552.385 1461.44 549.869C1461.44 549.312 1461.46 548.759 1461.5 548.211L1483.45 527.464C1484.03 527.424 1484.62 527.402 1485.2 527.402C1487.87 527.406 1490.42 527.817 1492.81 528.582L1487.38 533.716C1486.67 533.628 1485.94 533.584 1485.2 533.584C1480.44 533.588 1476.15 535.401 1473.02 538.355C1469.9 541.313 1467.98 545.363 1467.98 549.869C1467.98 550.568 1468.02 551.257 1468.11 551.929L1462.68 557.063" fill="#E6E2F1"/>
<path d="M1476.07 570.616C1473.68 569.674 1471.49 568.374 1469.57 566.787L1474.2 562.405C1476.22 563.983 1478.61 565.137 1481.24 565.721L1476.07 570.616V570.616ZM1501.97 546.124C1501.35 543.639 1500.13 541.379 1498.46 539.473L1503.1 535.087C1504.77 536.904 1506.15 538.974 1507.15 541.233L1501.97 546.124Z" fill="#E6E2F1"/>
<path d="M1492.58 571.231L1507.8 556.851C1505.45 563.643 1499.77 569.015 1492.58 571.231Z" fill="#E6E2F1"/>
</g>
<defs>
<clipPath id="clip0">
<rect width="1754" height="1337" fill="white"/>
</clipPath>
</defs>
</svg>
