<svg width="121" height="121" viewBox="0 0 121 121" fill="none" xmlns="http://www.w3.org/2000/svg">
<g clip-path="url(#clip0)">
<path d="M107.918 109.75C89.4029 124.865 31.5904 124.865 13.4531 109.75C-5.06207 94.6361 -3.1728 30.0221 13.4531 13.0184C30.0789 -3.98523 91.2922 -3.98523 107.918 13.0184C124.544 30.0221 126.433 94.6363 107.918 109.75Z" fill="#5EA288"/>
<path d="M60.8779 83.2141C44.2521 96.4393 25.7369 103.241 8.35544 103.619C-4.4919 81.7026 -1.84677 28.4246 13.2676 12.9324C26.8706 -1.04838 69.5687 -3.69351 94.1297 4.99722C100.175 29.936 87.706 61.676 60.8779 83.2141Z" fill="#72B198"/>
<path d="M79.7709 52.9853L64.2787 84.7256H56.7216L41.2294 52.9853V89.2597H28.0043V31.4472H45.3857L60.1224 63.1875L75.2368 31.4472H92.6182V89.2597H79.7709V52.9853Z" fill="white"/>
</g>
<defs>
<clipPath id="clip0">
<rect width="121" height="121" fill="white"/>
</clipPath>
</defs>
</svg>
