<svg width="512" height="512" viewBox="0 0 512 512" fill="none" xmlns="http://www.w3.org/2000/svg">
<g clip-path="url(#clip0)">
<path d="M14.9999 76.0017H300.331C308.615 76.0017 315.331 69.2858 315.331 61.0018C315.331 52.7179 308.615 46.002 300.331 46.002H14.9999C6.71595 46.002 0 52.7179 0 61.0018C0 69.2858 6.71595 76.0017 14.9999 76.0017ZM213.665 435.999H14.9999C6.71595 435.999 0 442.715 0 450.999C0 459.283 6.71595 465.999 14.9999 465.999H213.665C221.949 465.999 228.665 459.283 228.665 450.999C228.665 442.715 221.949 435.999 213.665 435.999ZM496.996 106.001H74.9994C68.1355 106.001 61.8035 110.788 60.2995 118.007L29.6338 256H14.9999C6.71595 256 0 262.716 0 271C0 279.284 6.71595 286 14.9999 286H22.9678L0.357997 387.745C-0.628995 392.186 0.452997 396.836 3.29997 400.385C6.14695 403.934 10.4499 405.999 14.9999 405.999H436.997C444.027 405.999 450.114 401.116 451.639 394.253L511.639 124.255C513.728 114.842 506.481 106.001 496.996 106.001V106.001ZM444.079 136.001L255.015 252.547L116.194 136.001H444.079ZM424.965 375.999H33.6987L53.6986 286H136.999C145.283 286 151.999 279.284 151.999 271C151.999 262.716 145.283 256 136.999 256H60.3655L84.2813 148.379L244.021 282.488C246.791 284.814 250.22 286 253.668 286C256.384 286 259.111 285.264 261.536 283.769L474.654 152.395L424.965 375.999Z" fill="url(#paint0_linear)"/>
</g>
<defs>
<linearGradient id="paint0_linear" x1="256" y1="465.999" x2="256" y2="46.002" gradientUnits="userSpaceOnUse">
<stop stop-color="#71B198"/>
<stop offset="1" stop-color="#01673F"/>
</linearGradient>
<clipPath id="clip0">
<rect width="512" height="512" fill="white"/>
</clipPath>
</defs>
</svg>
